<?xml version="1.0" encoding="utf-8"?>
<!-- Generator: Adobe Illustrator 22.0.1, SVG Export Plug-In . SVG Version: 6.00 Build 0)  -->
<svg version="1.1" id="Layer_1" xmlns="http://www.w3.org/2000/svg" xmlns:xlink="http://www.w3.org/1999/xlink" x="0px" y="0px"
	 viewBox="0 0 514.3 179.9" style="enable-background:new 0 0 514.3 179.9;" xml:space="preserve">
<style type="text/css">
	.st0{fill:#FFFFFF;}
</style>
<g>
	<g>
		<path class="st0" d="M201.6,45.5c60.9,38.2,120.8,63.5,187.3,42.7l1.5-1.6c-63.6,15.2-110.8-4.7-173.8-43.8
			c38.2-14.4,71.7-21.9,107.1-30.5h-18.4c-31.2,8.6-63,18.2-94.2,27.2l-2.4-1.4c10.2-10.4,17.8-22.3,24.4-22.3l14.7,0l3.2-3.5h-47.8
			l-3.2,3.5l10.4,0c1.8,0,3.6,1,2.5,2.3c-17.2,20.2-28.8,32.5-53.9,56.8h15.4C174.2,74.8,192,54.6,201.6,45.5z"/>
		<path class="st0" d="M37,139c19.6-7.4,36.6-11.2,54.7-15.6h-9.3c-16,4.4-32.2,9.3-48.2,13.9l-1.2-0.7c5.2-5.3,9.1-11.4,12.5-11.4
			l7.5,0l1.7-1.8H30.1l-1.7,1.8l5.3,0c0.9,0,1.8,0.5,1.3,1.2c-8.8,10.3-14.7,16.6-27.5,29h7.9c0,0,9.1-10.3,14-15
			c31.1,19.5,61.7,32.5,95.8,21.8l0.8-0.8C93.4,169.2,69.2,159,37,139z"/>
		<path class="st0" d="M201.9,146.5c1.4-3.1,6.8-7.9,14.2-16.1h-5.2l-1.1,1.1c-14.8-1.9-26.3,4.6-30.7,11c-0.7,0.4-1.4,0.8-1.5,0.9
			c-7.6,4.2-17.6,8.9-13.4,3.6l10.2-10.9c10.5-11.6-15.2-2.4-19.3,0l0.2-0.2c10.8-11.9-14.4-1.2-17.4,0.3c1.8-1.9,3.7-3.9,5.5-5.9
			l-5.2-0.1l-19.5,20.9h5.2c9.5-11.9,27.6-20.8,27.2-16.3c-0.3,3-14.2,16.3-14.2,16.3h5.3l7-7.7c11.4-11.9,23.6-11.4,20.3-7.7
			l-8.5,9.1c-6.8,7.3-0.1,9.5,17.3-0.9c-1,1.9-1.3,3.7-0.9,5.2c1,3.4,8.5,2.8,20.9-4.3c-2.7,7.6,2,9.6,20.2-1.6l2-2.1
			c-0.4,0.2-3.3,1.9-3.7,2.2C208.8,147.7,199.5,151.8,201.9,146.5z M185.3,147.2c-3.5-0.2,4.7-16.8,23.3-14.3
			C197.5,145.3,188.8,147.4,185.3,147.2z"/>
		<path class="st0" d="M62.9,149.2c1,3.4,8.5,2.8,20.9-4.3c-2.2,6.2,0.6,8.7,11.7,3.2l-2.9,3.1h5.2c8.2-8.9,19.8-20.8,30.1-15.5
			l4.2-4.5c-5.3-1.5-7.2-1.5-20.5,5.2c1.8-1.9,3.8-4.1,5.6-6h-5.2l-14.4,15.4c-6.4,3.2-12.2,5-10.2,0.7c1.4-3.1,6.8-7.9,14.2-16.1
			h-5.2l-1.1,1.1C75.1,128.9,60.9,142.2,62.9,149.2z M94.1,132.9c-11.1,12.4-19.8,14.5-23.3,14.3C67.4,147,75.5,130.4,94.1,132.9z"
			/>
		<path class="st0" d="M243,149.8c-2.9,0-5.4,0-6.4-0.5c-0.7-0.6-0.8-1.1,1-3l8.4-9l8.1,0c6.1,0,5.6,1.3,3.5,3.6l1.9,0l7.8-8.4
			l-1.9,0c-3.2,2.8-4.6,3.4-9.9,3.4l-8.3,0l9.3-10c0.9-1,1.8-1.2,2.8-1.2l7.2,0c5.8,0,8.8,1.2,4.7,5.6h2l6.5-7l-31.2,0l-1.1,1.2
			l3,0.2c1,0,1.3,0.3,1,1c-0.2,0.3-0.4,0.5-0.7,0.9L231,147.9c-1.3,1.4-2.1,1.9-3.6,1.9l-3.7,0.2l-1.1,1.2h31.2l6.5-6.9h-1.9
			C252.4,149.2,250.3,149.8,243,149.8z"/>
		<path class="st0" d="M378.1,135.7l4.2-4.5c-5.3-1.5-7.2-1.5-20.5,5.2c1.8-1.9,3.8-4.1,5.6-6h-5.2l-12.9,13.9
			c-4.8,2.8-8.9,4.3-15.8,4.1c-7.8-0.2-4-6-1.1-8.3c12.1,0.6,27.4-8.9,17.4-9.7c-4.5-0.3-9.7,1.6-13.6,3.4
			c-11.3,5.2-22.5,20.3-1.7,16.9c6-1,9-2.1,12.7-4.2l-4.4,4.8h5.2C356.2,142.3,367.8,130.4,378.1,135.7z M345.4,132.3
			c2.7-0.4,3.3,1.2,0.6,2.9c-2.6,1.6-7.4,3.8-11.9,3.2C334,138.3,339.6,133.1,345.4,132.3z"/>
		<path class="st0" d="M487,148.4c-7.8-0.2-4-6-1.1-8.3c12.1,0.6,27.4-8.9,17.4-9.7c-4.5-0.3-9.7,1.6-13.6,3.4
			c-4.5,2.1-9,5.7-11.5,9.2c-4.8,2.6-13,6.4-18.4,5.3c-5.1-1.1-4.4-4.8,0.3-9c14.3-12.6,15.4-4.5,16.5-3.3l3.8-4.1
			c-6.3-5.2-22.5,3.5-28.2,10.8c-0.5,0.3-0.9,0.5-1.1,0.6c-7.6,4.2-17.6,8.9-13.4,3.6l10.2-10.9c9.4-10.4-10.2-4.1-17.4-0.9
			c1.5-1.6,3-3.2,4.5-4.8h-5.2l-13,13.9c-4.8,2.8-8.8,4.3-15.8,4.1c-7.8-0.2-4-6-1.1-8.3c12.1,0.6,27.4-8.9,17.4-9.7
			c-4.5-0.3-9.7,1.6-13.6,3.4c-4.4,2-8.8,5.6-11.3,8.9c-0.6,0.3-1.1,0.6-1.2,0.7c-7.6,4.2-17.6,8.9-13.4,3.6l9-9.7l6.5-6.9h-5.2
			l-13.8,14.8c-6.4,7.1,0.1,9.1,17-0.9c-2.6,4.6-0.8,8.3,10.6,6.4c6-1,9-2.1,12.7-4.2l-4.4,4.7h4.9h0.1h0.2l6.5-6.9l1.5-1.6
			c11.2-11,22.6-10.4,19.4-6.8l-8.5,9.1c-6.7,7.2-0.3,9.5,16.7-0.5c-2,3.5-0.9,6.4,5.8,6.8c7.2,0.4,15.4-3.7,20.1-6.5
			c-2.2,4.4-0.2,7.8,10.8,6c7.9-1.3,10.6-2.8,16.4-6.5l2.1-2.2C499.8,146.2,495.6,148.6,487,148.4z M498.8,132.3
			c2.7-0.4,3.3,1.2,0.6,2.9c-2.6,1.6-7.4,3.8-11.9,3.2C487.5,138.3,493,133.1,498.8,132.3z M413,132.3c2.7-0.4,3.3,1.2,0.6,2.9
			c-2.6,1.6-7.4,3.8-11.9,3.2C401.7,138.3,407.2,133.1,413,132.3z"/>
		<path class="st0" d="M393.6,128.4c2.5,0,4.6-1.1,5.3-2.7c0.7-1.6-0.6-2.2-2.4-2.2c-2.7,0-4.8,1.4-5.4,2.7
			C390.5,127.6,391.7,128.4,393.6,128.4z"/>
		<path class="st0" d="M324.4,132.4c-0.9-3.2-7.7-2.8-19.1,3.3l4.9-5.3H305l-10.1,10.8c-1,0.6-2.6,1.5-2.9,1.7
			c-4.7,2.6-9.7,5.2-12.5,5.6c-0.9,0-1-0.2-1.2-0.5c-0.2-0.3-0.2-0.9,0.1-2l1-3.3l0.2-0.5l0.4-1.2l0.1-0.5c2.8-1.3,7.2-3.4,10.1-4.7
			c5.2-2.5,5.4-5.4,5.4-5.4l-5.2,0c0,0,0.2,3-5.4,5.9v0h0c0,0-0.1,0-0.1,0.1l-2.9,1.5l-1.3,0.6l1.2-2.9c0.1-0.3,0.7-1.8,1.2-3.1h0
			l0,0c0.1-0.4,0.3-0.8,0.4-1.1l0.3-1h-5.1l-0.2,0.5l0,0l0,0c0,0,0,0,0,0l-1.7,4.9c0,0,0,0.1,0,0.1l-0.3,0.8l-1.8,4.9
			c-2.7,1.3-6.3,3-8.8,4.1c-5.2,2.5-5.4,5.4-5.4,5.4h5.2c0,0-0.2-3,5.4-5.9v0h0c0,0,0.1,0,0.1-0.1l2.9-1.5l0.1,0l0,0l-0.6,1.6
			l-0.3,0.9c0,0,0,0,0,0l0,0l0,0c-0.7,2.1-0.2,3.9,2.1,4.7l0,0c0,0,0,0,0,0c0,0,0,0,0,0c0.3,0.1,0.8,0.1,0.9,0.1c0,0,0,0,0,0
			c0.7,0.1,1.7,0.1,2.5-0.2c2.8-0.9,9.9-5.2,9.9-5.2l0,0c1.6-0.9,2.5-1.4,4.1-2.4l-17,18.2l5.2,0l10.8-11.6
			C312.2,152.7,326.5,139.5,324.4,132.4z M293.2,148.7c11.1-12.4,19.8-14.5,23.3-14.3C319.9,134.6,311.7,151.2,293.2,148.7z"/>
	</g>
</g>
</svg>
