<?xml version="1.0" encoding="utf-8"?>
<!-- Generator: Adobe Illustrator 22.0.1, SVG Export Plug-In . SVG Version: 6.00 Build 0)  -->
<svg version="1.1" id="Layer_1" xmlns="http://www.w3.org/2000/svg" xmlns:xlink="http://www.w3.org/1999/xlink" x="0px" y="0px"
	 viewBox="0 0 452.8 213.8" style="enable-background:new 0 0 452.8 213.8;" xml:space="preserve">
<style type="text/css">
	.st0{fill:#8C734B;}
</style>
<path class="st0" d="M164.6,65.5c54.8,34.4,109.2,57.7,169.1,38.9l0.8-1.4c-57.3,13.7-99.3-4.2-156-39.4C213,50.6,243.1,43,275,36.3
	h-16.6c-28.1,8.2-55.5,15.9-83.6,24l-3.7-2c6.3-7.5,14.1-18.9,20.1-18.9h15.3l2.8-3.1l-43,0l-2.8,3.1l9.5,0c1.7,0,2.1,0.6,1.2,1.8
	c-15.2,18.6-28.4,34.4-46.8,50.4l14-0.2C148.6,82.7,155.6,73.7,164.6,65.5z"/>
<g>
	<path class="st0" d="M68.4,162.3c0.8,2.7,6.6,2.3,16.2-3.5c-2,6.1,1.5,7.7,15.1-0.9c-1.5,1.8-3.3,3.7-5.5,6h4.5l2.7-3.1
		c6.4-7.3,12.6-13.8,21.3-9.4l3.4-3.7c-4-1.4-6.6-1.5-17.1,4c1.4-1.6,2.8-3.1,4.2-4.7l-4.4-0.1c-3.1,3.6-5.1,6.3-7.5,9.2
		c-0.8,0.5-1.9,1.2-2.1,1.3c-6.1,3.6-12.9,7-11.5,2.6c0.8-2.5,5.3-6.4,11-13.1h-4l-1,0.9C77.8,145.8,66.8,156.7,68.4,162.3z
		 M92.6,149c-8.6,10.1-15.3,11.7-18,11.6C71.9,160.4,78.2,147,92.6,149z"/>
	<path class="st0" d="M45.6,154.2c16.3-6.4,30.5-10.2,45.6-13.5h-7.8c-13.3,4-26.2,7.8-39.5,11.9l-1.7-1c3-3.7,6.7-9.3,9.5-9.3h7.2
		l1.3-1.5l-20.3,0l-1.3,1.6l4.5,0c0.8,0,1,0.3,0.5,0.9c-7.2,9.2-13.4,17-22.1,24.9l6.6-0.1c3.4-4.3,6.7-8.7,11-12.8
		c25.9,16.9,51.6,28.4,79.9,19.2l0.4-0.7C92.3,180.3,72.4,171.5,45.6,154.2z"/>
	<path class="st0" d="M180.6,160.1c0.8-2.5,5.3-6.4,11-13.1h-4l-1,0.9c-11.2-1.5-20,3.6-23.6,8.7c-0.7,0.4-1.5,0.9-1.7,1
		c-5.9,3.4-14.9,7.3-11.6,3l7.7-9.1c8.3-9.5-10.6-1.3-13.6,0.2l0.2-0.2c8.4-9.7-11.4-1-13.7,0.3c1.4-1.6,2.8-3.1,4.2-4.7l-4.4-0.1
		L115.6,164h4.5l2.7-3.1c5.6-6.3,15.1-12.6,18.2-11c1,0.5-12.6,14-12,14h4.5l2.7-3.1c6.2-7.9,15.2-12.6,18.3-11
		c0.5,0.3-1.8,2.8-7.5,8.9c-4.6,6.1,1.4,7.7,15.4-1c-0.8,1.6-1.1,3.1-0.8,4.4c0.8,2.7,6.6,2.3,16.2-3.5c-2.1,6.3,1.7,7.9,16.5-1.8
		l0.8-1.2c-0.3,0.2-2.6,1.6-2.9,1.8C186,161,179.2,164.5,180.6,160.1z M167.7,160.6c-2.7-0.2,3.6-13.6,18-11.6
		C177.2,159.1,170.4,160.8,167.7,160.6z"/>
	<path class="st0" d="M423.8,162.2c-6.1-0.2-3.1-4.9-0.9-6.8c9.5,0.5,21.6-7.4,13.7-8c-3.5-0.3-7.6,1.3-10.7,2.8
		c-2.8,1.4-5.6,3.6-7.6,5.9c-1.6,1.1-11.3,7.2-17.2,5.9c-4.1-0.9-3.5-4,0.3-7.5c11.5-10.6,12.2-3.9,13-2.9l3.5-2.9
		c-4.4-4.8-16.7,1.6-22,7.6c-0.7,0.4-2.3,1.4-2.6,1.6c-5.9,3.4-14.8,7.2-11.5,2.9l7.6-9c8.2-9.4-10.6-1.3-13.5,0.2l0.2-0.2l4-4.5
		h-4.5c-1.9,2.4-4.8,5.8-7.5,8.8l0.1-0.1c-6,4-9.3,6.3-16.6,6.1c-6.1-0.2-3.1-4.9-0.9-6.8c9.5,0.5,21.6-7.4,13.7-8
		c-3.5-0.3-7.6,1.3-10.7,2.8c-3.1,1.5-6.2,4-8.2,6.6c-0.8,0.5-2.1,1.3-2.4,1.4c-5.9,3.4-14.9,7.2-11.6,3l12.1-13.8h-4.6l-10.3,12.1
		c-4.6,6.1,1.6,7.8,15.8-1.3c-2.6,4-1.6,7.5,7.9,5.9c6.8-1.2,8.7-2.5,14.3-6.3c-3.1,3.5-5.7,6.4-5.5,6.4h4.5l2.6-3
		c6.1-7.8,15-12.5,18.1-10.9c0.5,0.3-1.7,2.8-7.4,8.9c-4.6,6.1,1.6,7.7,15.7-1.3c-2.3,3.4-1.9,6.3,4.1,6.6c7,0.4,15.5-4.9,18.2-6.7
		c-2.9,4.2-2.3,8,7.6,6.4c7.1-1.2,8.9-2.7,15.2-6.8l0.6-1.2C434.4,160.1,431.2,162.4,423.8,162.2z M433.2,149c2.1-0.3,2.6,1,0.5,2.4
		c-2.1,1.4-6,3.2-9.7,2.6C426.1,151.6,429.7,149.5,433.2,149z M361,149c2.1-0.3,2.6,1,0.5,2.4c-2.1,1.4-6,3.2-9.7,2.6
		C353.9,151.6,357.5,149.5,361,149z"/>
	<path class="st0" d="M335.5,148.2c-4-1.4-6.6-1.5-17.1,4c1.4-1.6,2.9-3.2,4.3-4.8h-4.5c-2.9,3.4-4.9,6-7.1,8.7l0,0
		c-6,4-9.3,6.3-16.6,6.1c-6.1-0.2-3.1-4.9-0.9-6.8c9.5,0.5,21.6-7.4,13.7-8c-3.5-0.3-7.6,1.3-10.7,2.8c-8.7,4.3-17.7,16.7-1.3,13.9
		c6.8-1.2,8.8-2.6,14.5-6.4c-1.6,1.9-3.5,4-5.9,6.5h4.5l2.6-3c6.4-7.3,12.6-13.8,21.3-9.4L335.5,148.2z M303.7,149
		c2.1-0.3,2.6,1,0.5,2.4c-2.1,1.4-6,3.2-9.7,2.6C296.7,151.6,300.3,149.5,303.7,149z"/>
	<path class="st0" d="M234.2,158.4c-4.2,4.2-6.7,4.8-12.6,4.8c-2.4,0-4.7-0.1-5.2-0.4c-0.3-0.3-0.4-0.5-0.2-1c0.2-0.4,0.5-0.8,1-1.5
		l5.6-7.4l6.3,0c3.6,0,4,0.5,3.4,2c-0.1,0.3-0.2,0.6-0.4,0.9l1.4,0l5.2-7.1l-1.4,0c-2.2,2.3-3,2.9-7.2,2.9l-6.3,0l6.3-8.4
		c0.6-0.8,1-1,1.8-1l5.8,0c4.7,0,5.3,0.9,4.6,2.6c-0.2,0.5-0.6,1.2-1,1.8l1.4,0l4.2-5.7l-24.3,0l-0.8,1l2.8,0.1c0.8,0,1,0.3,0.8,0.9
		c-0.1,0.2-0.2,0.5-0.5,0.8l-13.4,17.8c-0.9,1.2-1.5,1.6-2.7,1.6l-2.8,0.2l-0.7,1l25.1,0l5-6L234.2,158.4z"/>
	<path class="st0" d="M343,144.9c2,0,3.6-0.9,4.2-2.4c0.6-1.4-0.5-1.9-1.9-1.9c-2.2,0-3.8,1.2-4.3,2.3
		C340.5,144.2,341.4,144.9,343,144.9z"/>
	<path class="st0" d="M287.8,148.6c-0.7-2.6-6.1-2.3-14.9,2.8l3.6-3.9h-4.6l-4.2,4.8c-1,1-2.1,2.3-3.4,3.7c-0.5,0.3-2.5,1.5-2.8,1.7
		c-3.7,2.2-7.7,4.3-9.9,4.6c-0.7,0-0.8-0.2-0.9-0.4c-0.2-0.3-0.2-0.7,0.1-1.6l0.8-2.8l0.1-0.4h0l0.3-1c0.4-0.2,2.9-1.5,5.5-3
		c6-3.3,8.1-4.9,8.9-5.7h-3.1c-2,1.5-3.8,2.8-5.4,3.9c-0.1,0.1-0.3,0.2-0.4,0.3c0,0-0.1,0.1-0.1,0.1c-0.2,0.1-0.3,0.2-0.5,0.3
		c0,0-0.1,0.1-0.1,0.1l0,0c-0.4,0.2-0.8,0.5-1.2,0.7l-3,1.6l1.1-2.8c0.1-0.2,0.6-1.5,0.9-2.6h0l0,0c0.1-0.3,0.2-0.6,0.3-0.9l0.2-0.7
		h-4l-0.1,0.2l0,0l0,0c0,0,0,0,0,0l-1.4,4.1c0,0,0,0.1,0,0.1l-0.2,0.7l-1.4,4.1c-0.5,0.2-3.5,1.7-6.9,3.4c-4.7,2.4-7.6,4.2-7.8,4.3
		h4.6c0.3-0.2,2.6-2,7.3-4.7v0h0c0,0,0.1,0,0.1,0l2.3-1.3l-0.5,1.3l-0.3,0.8c0,0,0,0,0,0l0,0l0,0c-0.6,1.8-0.2,3.2,1.7,3.9l0,0
		c0,0,0,0,0,0c0,0,0,0,0,0c0.2,0.1,0.6,0.1,0.7,0.1c0,0,0,0,0,0c0.5,0.1,1.3,0.1,2-0.2c2.2-0.8,7.9-4.3,7.9-4.3l0,0
		c1.2-0.7,2.4-1.4,3.8-2.3l-4.2,4.7c-0.6,0.6-1.2,1.3-1.7,1.9l0,0h0c-3.1,3.4-6,6.6-8,8.7h4.3l8.8-9.3c0.3-0.3,0.5-0.6,0.8-0.9
		C278.2,165,289.4,154.1,287.8,148.6z M263.5,161.8c8.6-10.1,15.3-11.8,18-11.6C284.3,150.4,277.9,163.8,263.5,161.8z"/>
</g>
</svg>
